<svg xmlns="http://www.w3.org/2000/svg" viewBox="0 0 166.28 197.89"><defs><style>.cls-1{fill:#051bc1;}.cls-2,.cls-3{fill:#fc006f;}.cls-3{font-size:6.8px;font-family:Poppins-SemiBold, Poppins;font-weight:600;}</style></defs><g id="Capa_2" data-name="Capa 2"><g id="Capa_1-2" data-name="Capa 1"><path class="cls-1" d="M115.94,84.34c-3.11,0-6.22,0-9.33,0-.77,0-1.31-.06-1.62-1-2.77-8.29-9-12.76-17.11-14.69-7.82-1.86-15.6-1.41-22.72,2.77C57.38,76,53.4,83.22,52.05,91.89c-1.23,8-.89,15.88,2.78,23.26,4.33,8.73,11.48,13.59,21.15,14.69,7.52.86,14.59-.39,20.94-4.73a19.76,19.76,0,0,0,8-10.52c.29-.94.77-1.12,1.66-1.11,6.22,0,12.44,0,18.66,0,1.33,0,1.38.45,1.16,1.55-2.79,14-11.27,23.44-24.17,28.57C85.08,150.42,68,149.94,52,140,40.24,132.69,34,121.54,32,108c-1.6-10.73-.79-21.3,3.74-31.29,6.75-14.91,18.68-23.2,34.57-25.83,12.27-2,24.27-.81,35.47,5s18.2,14.62,20.65,27c.22,1.15,0,1.46-1.15,1.44C122.16,84.3,119.05,84.34,115.94,84.34Z"/><path class="cls-2" d="M79.09,22.09c-5,9.08-13.48,11.13-22.71,11.34-8.66.19-17.32.06-26,.1a21.92,21.92,0,0,0-5.59.78A11.63,11.63,0,0,0,15.61,45c-.15,1.64-.61,2.23-2.35,2.17-3.94-.16-7.89,0-11.83,0-.72,0-1.46.13-1.43-1C.2,40,.83,34,3.77,28.54c3.88-7.23,10.28-10.95,18-12.67a43.75,43.75,0,0,1,9.41-.95c7.72,0,15.44,0,23.16-.08a28.66,28.66,0,0,0,7.06-1c6.31-1.67,9.69-5.68,10.11-12.21C71.63.25,72.09,0,73.32,0,77.21.07,81.09,0,85,0c.82,0,1.45,0,1.58,1.14,1,8.55,4.9,12.33,13.57,13.37a81,81,0,0,0,8.81.39c7.71.1,15.44-.38,23.14.29,6.89.6,13.29,2.54,18.24,7.78,4.46,4.72,6.46,10.51,7.21,16.82.24,2,.23,4,.37,6,.08,1-.15,1.39-1.25,1.37-4.33-.06-8.66,0-13,0-.71,0-1.12-.13-1.16-1-.44-8.65-5.28-12.2-14.66-12.57-8.59-.34-17.21-.08-25.81-.14A37.2,37.2,0,0,1,91.2,31.88a20,20,0,0,1-11.08-8.32C79.82,23.11,79.49,22.67,79.09,22.09Z"/><path class="cls-2" d="M79.1,175.89a40.12,40.12,0,0,1,3.21-4.26c4.17-4.51,9.56-6.33,15.46-6.79,8.86-.7,17.75-.16,26.63-.3a38.08,38.08,0,0,0,7.61-.62c6.87-1.5,9.77-4.66,10.46-11.65.1-1,.29-1.44,1.42-1.42,4.22.06,8.44,0,12.66,0,.77,0,1.37-.05,1.37,1.07,0,5.66-.72,11.19-3.11,16.38-4,8.61-11.07,12.81-20.16,14.16a74.39,74.39,0,0,1-9.79.62c-8.21.15-16.43-.43-24.62.37a22.74,22.74,0,0,0-5,1.12c-5.56,1.88-8.2,6-8.6,11.64-.1,1.3-.46,1.69-1.76,1.66-3.94-.08-7.88,0-11.82,0-.74,0-1.38.09-1.45-1-.63-9.59-6.4-12.47-13.6-13.32-8-.95-16.08-.27-24.12-.4a82,82,0,0,1-9.79-.58C10,180.57,1.22,171.09.3,156.84.19,155.23.13,153.63,0,152c-.07-.85.25-1.17,1.13-1.16,4.39,0,8.77,0,13.16,0,1.52,0,1.14,1.12,1.23,1.86.8,6.22,4,9.81,10.15,11.15a24.73,24.73,0,0,0,5.28.62c8.44,0,16.88,0,25.31.06a39.48,39.48,0,0,1,10,1.35A20.11,20.11,0,0,1,79.1,175.89Z"/><path class="cls-2" d="M157.84,178.74a4.22,4.22,0,0,1,8.44,0,4.22,4.22,0,1,1-8.44,0Zm4.16-3.26a3.3,3.3,0,1,0,3.33,3.24A3.33,3.33,0,0,0,162,175.48Z"/><text class="cls-3" transform="translate(160.02 181.12)">R</text></g></g></svg>